M48
; DRILL file {KiCad 8.0.8} date 2025-03-03T13:18:10-0600
; FORMAT={-:-/ absolute / inch / decimal}
; #@! TF.CreationDate,2025-03-03T13:18:10-06:00
; #@! TF.GenerationSoftware,Kicad,Pcbnew,8.0.8
; #@! TF.FileFunction,Plated,1,2,PTH
FMAT,2
INCH
; #@! TA.AperFunction,Plated,PTH,ViaDrill
T1C0.0118
; #@! TA.AperFunction,Plated,PTH,ComponentDrill
T2C0.0197
; #@! TA.AperFunction,Plated,PTH,ComponentDrill
T3C0.0217
; #@! TA.AperFunction,Plated,PTH,ComponentDrill
T4C0.0469
%
G90
G05
T1
X4.7047Y-3.3071
X4.7047Y-4.4488
X4.7638Y-3.7992
X4.9016Y-3.6024
X5.5512Y-4.8425
X5.7283Y-4.8819
X5.8268Y-3.0906
X5.8268Y-4.1732
X5.9055Y-3.563
X5.9843Y-3.4449
X6.0433Y-4.4291
X6.1811Y-3.189
X6.1811Y-3.4843
X6.2598Y-3.937
X6.2598Y-4.4291
X6.3386Y-4.2323
X6.3583Y-3.9764
X6.3622Y-3.1181
X6.3622Y-3.5197
X6.4567Y-3.6417
X6.5354Y-4.4291
X6.6535Y-3.8189
X6.6732Y-3.1496
X6.6732Y-3.9173
X6.7323Y-3.5827
X6.752Y-4.1142
T4
X4.4382Y-3.0126
X4.5382Y-3.0126
X6.1795Y-2.9331
X6.2795Y-2.9331
X6.3795Y-2.9331
X6.7307Y-2.9331
X6.7717Y-3.3661
X6.7717Y-3.4661
X6.8307Y-2.9331
T2
G00X6.9163Y-3.6811
M15
G01X6.9419Y-3.6811
M16
G05
G00X6.9163Y-3.9567
M15
G01X6.9419Y-3.9567
M16
G05
T3
G00X6.8228Y-3.7264
M15
G01X6.8228Y-3.7146
M16
G05
G00X6.8228Y-3.9232
M15
G01X6.8228Y-3.9114
M16
G05
M30
